<?xml version="1.0" standalone="no"?>
<!DOCTYPE svg PUBLIC "-//W3C//DTD SVG 20010904//EN"
 "http://www.w3.org/TR/2001/REC-SVG-20010904/DTD/svg10.dtd">
<svg version="1.0" xmlns="http://www.w3.org/2000/svg"
 width="500.000000pt" height="500.000000pt" viewBox="0 0 500.000000 500.000000"
 preserveAspectRatio="xMidYMid meet">
<metadata>
Created by potrace 1.14, written by Peter Selinger 2001-2017
</metadata>
<g transform="translate(0.000000,500.000000) scale(0.100000,-0.100000)"
fill="#000000" stroke="none">
<path d="M2329 4696 c-2 -2 -33 -6 -69 -10 -36 -3 -74 -8 -85 -10 -11 -2 -40
-7 -65 -11 -25 -4 -72 -14 -105 -22 -33 -8 -69 -17 -80 -19 -28 -5 -195 -61
-239 -79 -20 -8 -38 -15 -41 -16 -13 0 -215 -105 -283 -146 -88 -53 -247 -169
-306 -222 -70 -64 -180 -176 -226 -230 -25 -29 -53 -63 -64 -75 -50 -58 -191
-285 -244 -396 -54 -111 -143 -351 -156 -420 -2 -14 -11 -56 -20 -95 -32 -147
-40 -226 -40 -430 -1 -184 5 -276 28 -400 157 -872 822 -1568 1679 -1759 200
-45 262 -51 492 -51 220 0 301 9 527 60 138 31 333 105 488 186 242 127 449
291 639 504 58 65 181 231 181 244 0 5 4 11 8 13 5 2 32 44 60 95 141 247 228
501 271 793 15 98 18 169 16 325 -4 207 -4 213 -29 355 -21 119 -22 125 -55
236 -59 206 -149 400 -269 584 -72 111 -75 115 -163 219 -265 313 -620 552
-1004 675 -102 32 -275 74 -341 81 -28 3 -61 8 -75 11 -26 6 -424 15 -430 10z"/>
</g>
</svg>
